<svg width="482" height="187" viewBox="0 0 482 187" fill="none" xmlns="http://www.w3.org/2000/svg">
<path d="M10.2426 86.6806L45.6596 8.44223L48.6213 14.489H4.44256V0.0507374H58.8639L60.7149 9.05926L26.9021 86.6806H10.2426Z" fill="white"/>
<path d="M106.115 86.6806V45.0933C106.115 41.5557 104.922 38.7997 102.536 36.8252C100.233 34.7685 97.2301 33.7401 93.528 33.7401C90.0726 33.7401 86.9464 34.4394 84.1492 35.838C81.3521 37.2366 78.7606 39.3756 76.3748 42.255L66.8726 32.8763C70.8216 28.7628 75.1407 25.6366 79.8301 23.4976C84.5194 21.3586 89.6202 20.289 95.1322 20.289C100.233 20.289 104.675 21.1117 108.46 22.7571C112.244 24.4025 115.165 26.8706 117.222 30.1614C119.278 33.3699 120.307 37.3188 120.307 42.0082V86.6806H106.115ZM87.4811 87.9146C83.2854 87.9146 79.5421 87.0919 76.2513 85.4465C72.9606 83.8012 70.3279 81.5387 68.3535 78.6593C66.4613 75.6976 65.5152 72.2423 65.5152 68.2933C65.5152 64.9203 66.1322 61.9174 67.3662 59.2848C68.6003 56.6522 70.4102 54.5132 72.796 52.8678C75.2641 51.1401 78.3081 49.8238 81.9279 48.9189C85.6301 48.0139 89.867 47.5614 94.6386 47.5614H113.396L112.285 58.421H93.7748C91.6358 58.421 89.7024 58.6267 87.9748 59.038C86.2471 59.4494 84.7663 60.0664 83.5322 60.8891C82.3804 61.7118 81.5166 62.699 80.9407 63.8508C80.3648 64.9203 80.0769 66.2366 80.0769 67.7997C80.0769 69.3628 80.4471 70.7614 81.1875 71.9955C82.0102 73.2295 83.1209 74.1756 84.5194 74.8338C86.0003 75.4919 87.6868 75.821 89.579 75.821C92.2116 75.821 94.7209 75.3685 97.1067 74.4636C99.5748 73.4763 101.755 72.2011 103.647 70.638C105.539 68.9926 107.02 67.1416 108.09 65.0848L111.175 73.4763C109.447 76.3558 107.308 78.865 104.758 81.004C102.29 83.143 99.5748 84.8295 96.6131 86.0636C93.7336 87.2976 90.6897 87.9146 87.4811 87.9146Z" fill="white"/>
<path d="M131.154 86.6806V21.6465H146.086L146.332 34.7274L143.864 35.7146C144.605 33.5756 145.715 31.6011 147.196 29.7912C148.677 27.899 150.446 26.2947 152.503 24.9784C154.559 23.5798 156.74 22.5103 159.043 21.7699C161.347 20.9472 163.691 20.5359 166.077 20.5359C169.615 20.5359 172.741 21.1117 175.456 22.2635C178.253 23.333 180.557 25.0607 182.367 27.4465C184.259 29.8323 185.657 32.8763 186.562 36.5784L184.218 36.0848L185.205 34.1103C186.11 32.1359 187.385 30.3671 189.03 28.804C190.676 27.1586 192.527 25.7188 194.584 24.4848C196.64 23.1685 198.779 22.1812 201.001 21.5231C203.304 20.8649 205.567 20.5359 207.788 20.5359C212.724 20.5359 216.837 21.5231 220.128 23.4976C223.419 25.472 225.887 28.4749 227.533 32.5061C229.178 36.5373 230.001 41.5146 230.001 47.438V86.6806H214.698V48.4252C214.698 45.1345 214.246 42.4196 213.341 40.2806C212.518 38.1415 211.202 36.5784 209.392 35.5912C207.664 34.5217 205.484 33.9869 202.852 33.9869C200.795 33.9869 198.82 34.3571 196.928 35.0976C195.118 35.7557 193.555 36.743 192.239 38.0593C190.923 39.2933 189.894 40.733 189.154 42.3784C188.413 44.0238 188.043 45.8337 188.043 47.8082V86.6806H172.741V48.3018C172.741 45.1756 172.289 42.5841 171.384 40.5274C170.479 38.3884 169.162 36.7841 167.435 35.7146C165.707 34.5628 163.609 33.9869 161.141 33.9869C159.084 33.9869 157.151 34.3571 155.341 35.0976C153.531 35.7557 151.968 36.7018 150.652 37.9359C149.335 39.1699 148.307 40.6096 147.567 42.255C146.826 43.9004 146.456 45.7103 146.456 47.6848V86.6806H131.154Z" fill="white"/>
<path d="M27.3958 185.724L0 120.69H16.5362L35.0468 169.311L31.8383 170.175L51.3362 120.69H67.5022L38.749 185.724H27.3958Z" fill="white"/>
<path d="M102.344 186.958C95.5153 186.958 89.4685 185.518 84.2032 182.639C79.0202 179.759 74.9479 175.851 71.9862 170.915C69.1068 165.897 67.667 160.179 67.667 153.762C67.667 148.661 68.4897 144.013 70.1351 139.817C71.7805 135.622 74.0429 132.002 76.9224 128.958C79.8841 125.832 83.3805 123.446 87.4117 121.8C91.5252 120.073 96.0089 119.209 100.863 119.209C105.141 119.209 109.131 120.032 112.833 121.677C116.535 123.322 119.744 125.585 122.459 128.464C125.173 131.261 127.23 134.634 128.629 138.583C130.11 142.45 130.809 146.687 130.727 151.294L130.603 156.6H77.9096L75.0713 146.234H117.893L115.918 148.332V145.617C115.671 143.067 114.849 140.846 113.45 138.954C112.051 136.979 110.242 135.457 108.02 134.388C105.881 133.236 103.495 132.66 100.863 132.66C96.8316 132.66 93.4174 133.442 90.6203 135.005C87.9054 136.568 85.8486 138.83 84.45 141.792C83.0514 144.671 82.3522 148.291 82.3522 152.651C82.3522 156.847 83.216 160.508 84.9437 163.634C86.7536 166.761 89.2628 169.188 92.4713 170.915C95.7621 172.561 99.5876 173.383 103.948 173.383C106.992 173.383 109.789 172.89 112.339 171.903C114.89 170.915 117.646 169.147 120.608 166.596L128.135 177.086C125.914 179.142 123.364 180.911 120.484 182.392C117.687 183.791 114.725 184.901 111.599 185.724C108.473 186.547 105.388 186.958 102.344 186.958Z" fill="white"/>
<path d="M139.234 185.724V120.69H154.042L154.289 134.017L151.451 135.498C152.274 132.537 153.878 129.863 156.264 127.477C158.649 125.009 161.488 123.034 164.779 121.554C168.069 120.073 171.442 119.332 174.898 119.332C179.834 119.332 183.947 120.32 187.238 122.294C190.611 124.268 193.12 127.23 194.766 131.179C196.493 135.128 197.357 140.064 197.357 145.988V185.724H182.179V147.098C182.179 143.808 181.726 141.093 180.821 138.954C179.916 136.732 178.518 135.128 176.625 134.141C174.733 133.071 172.43 132.578 169.715 132.66C167.493 132.66 165.437 133.03 163.545 133.771C161.735 134.429 160.13 135.416 158.732 136.732C157.415 137.966 156.346 139.406 155.523 141.051C154.783 142.697 154.413 144.507 154.413 146.481V185.724H146.885C145.404 185.724 144.005 185.724 142.689 185.724C141.455 185.724 140.303 185.724 139.234 185.724Z" fill="white"/>
<path d="M216.531 185.724V104.154H231.71V185.724H216.531ZM203.697 134.758V120.69H245.901V134.758H203.697Z" fill="white"/>
<path d="M275.108 186.958C270.418 186.958 266.346 185.93 262.891 183.873C259.435 181.734 256.803 178.731 254.993 174.864C253.183 170.915 252.278 166.226 252.278 160.796V120.69H267.457V157.588C267.457 161.043 267.991 164.005 269.061 166.473C270.131 168.859 271.694 170.71 273.75 172.026C275.807 173.342 278.275 174 281.155 174C283.294 174 285.227 173.671 286.955 173.013C288.765 172.273 290.328 171.286 291.644 170.052C292.96 168.735 293.989 167.213 294.729 165.486C295.47 163.676 295.84 161.742 295.84 159.686V120.69H311.018V185.724H296.21L295.963 172.149L298.678 170.669C297.691 173.795 296.004 176.592 293.618 179.06C291.315 181.446 288.559 183.379 285.35 184.86C282.142 186.259 278.728 186.958 275.108 186.958Z" fill="white"/>
<path d="M323.873 185.724V120.69H338.805L339.052 141.422L336.954 136.732C337.859 133.442 339.422 130.48 341.643 127.847C343.864 125.215 346.415 123.158 349.294 121.677C352.256 120.114 355.341 119.332 358.549 119.332C359.948 119.332 361.264 119.456 362.498 119.703C363.815 119.949 364.884 120.237 365.707 120.566L361.635 137.226C360.73 136.732 359.619 136.321 358.303 135.992C356.986 135.663 355.67 135.498 354.354 135.498C352.297 135.498 350.322 135.91 348.43 136.732C346.62 137.473 345.016 138.542 343.617 139.941C342.219 141.339 341.108 142.985 340.286 144.877C339.545 146.687 339.175 148.744 339.175 151.047V185.724H323.873Z" fill="white"/>
<path d="M398.586 186.958C391.758 186.958 385.711 185.518 380.446 182.639C375.263 179.759 371.191 175.851 368.229 170.915C365.349 165.897 363.91 160.179 363.91 153.762C363.91 148.661 364.732 144.013 366.378 139.817C368.023 135.622 370.286 132.002 373.165 128.958C376.127 125.832 379.623 123.446 383.654 121.8C387.768 120.073 392.252 119.209 397.106 119.209C401.384 119.209 405.374 120.032 409.076 121.677C412.778 123.322 415.986 125.585 418.701 128.464C421.416 131.261 423.473 134.634 424.872 138.583C426.352 142.45 427.052 146.687 426.969 151.294L426.846 156.6H374.152L371.314 146.234H414.135L412.161 148.332V145.617C411.914 143.067 411.091 140.846 409.693 138.954C408.294 136.979 406.484 135.457 404.263 134.388C402.124 133.236 399.738 132.66 397.106 132.66C393.074 132.66 389.66 133.442 386.863 135.005C384.148 136.568 382.091 138.83 380.693 141.792C379.294 144.671 378.595 148.291 378.595 152.651C378.595 156.847 379.459 160.508 381.186 163.634C382.996 166.761 385.506 169.188 388.714 170.915C392.005 172.561 395.83 173.383 400.191 173.383C403.235 173.383 406.032 172.89 408.582 171.903C411.132 170.915 413.889 169.147 416.85 166.596L424.378 177.086C422.157 179.142 419.606 180.911 416.727 182.392C413.93 183.791 410.968 184.901 407.842 185.724C404.715 186.547 401.63 186.958 398.586 186.958Z" fill="white"/>
<path d="M457.196 186.958C451.437 186.958 446.254 186.012 441.647 184.12C437.122 182.145 433.42 179.348 430.54 175.728L440.413 167.213C442.881 170.01 445.637 172.026 448.681 173.26C451.725 174.494 454.933 175.111 458.306 175.111C459.705 175.111 460.939 174.947 462.008 174.617C463.16 174.288 464.148 173.795 464.97 173.137C465.793 172.478 466.41 171.738 466.821 170.915C467.315 170.01 467.562 169.023 467.562 167.954C467.562 165.979 466.821 164.416 465.34 163.264C464.518 162.688 463.201 162.071 461.391 161.413C459.664 160.755 457.401 160.097 454.604 159.439C450.162 158.287 446.46 156.971 443.498 155.49C440.536 153.927 438.233 152.199 436.587 150.307C435.189 148.744 434.119 146.975 433.379 145C432.721 143.026 432.391 140.887 432.391 138.583C432.391 135.704 433.008 133.112 434.243 130.809C435.559 128.423 437.328 126.366 439.549 124.639C441.77 122.911 444.362 121.595 447.323 120.69C450.285 119.785 453.37 119.332 456.579 119.332C459.87 119.332 463.037 119.744 466.081 120.566C469.207 121.389 472.087 122.582 474.719 124.145C477.434 125.626 479.738 127.436 481.63 129.575L473.238 138.83C471.675 137.349 469.948 136.033 468.055 134.881C466.245 133.729 464.394 132.825 462.502 132.166C460.61 131.426 458.841 131.056 457.196 131.056C455.633 131.056 454.234 131.22 453 131.549C451.766 131.796 450.738 132.208 449.915 132.783C449.092 133.359 448.434 134.1 447.94 135.005C447.529 135.827 447.323 136.815 447.323 137.966C447.406 138.954 447.652 139.9 448.064 140.805C448.557 141.627 449.216 142.327 450.038 142.903C450.943 143.478 452.301 144.137 454.111 144.877C455.921 145.617 458.265 146.317 461.145 146.975C465.176 148.044 468.549 149.237 471.264 150.554C473.979 151.87 476.118 153.392 477.681 155.12C479.244 156.6 480.355 158.328 481.013 160.303C481.671 162.277 482 164.457 482 166.843C482 170.71 480.889 174.165 478.668 177.209C476.529 180.253 473.567 182.639 469.783 184.366C466.081 186.094 461.885 186.958 457.196 186.958Z" fill="white"/>
<path d="M426.88 101.762C427.58 97.2904 427.943 92.7067 427.943 88.0383C427.943 39.4161 388.527 -1.90735e-06 339.905 -1.90735e-06C291.828 -1.90735e-06 252.751 38.5375 251.881 86.4069C271.475 82.6001 291.908 80.586 312.91 80.586C353.708 80.586 392.354 88.1857 426.88 101.762Z" fill="#FFC533"/>
</svg>
